<?xml version="1.0" standalone="no"?>
<!DOCTYPE svg PUBLIC "-//W3C//DTD SVG 20010904//EN"
 "http://www.w3.org/TR/2001/REC-SVG-20010904/DTD/svg10.dtd">
<svg version="1.0" xmlns="http://www.w3.org/2000/svg"
 width="400.000000pt" height="400.000000pt" viewBox="0 0 400.000000 400.000000"
 preserveAspectRatio="xMidYMid meet">

<g transform="translate(0.000000,400.000000) scale(0.100000,-0.100000)"
fill="#000000" stroke="none">
<path d="M1760 3911 c-15 -6 -19 -10 -10 -12 8 -1 -21 -6 -65 -11 -44 -4 -88
-9 -97 -10 -32 -4 -19 -18 16 -18 19 0 37 -4 40 -8 2 -4 -10 -8 -28 -8 -41 0
-196 -36 -196 -46 0 -4 -17 -10 -37 -14 -21 -4 -43 -11 -49 -15 -6 -5 -20 -6
-29 -2 -13 4 -16 3 -11 -5 4 -8 2 -10 -7 -6 -8 3 -17 -2 -20 -11 -4 -8 -37
-29 -74 -46 -111 -50 -115 -52 -101 -60 17 -11 6 -20 -28 -23 -29 -3 -79 -60
-68 -78 3 -5 2 -7 -3 -6 -5 2 -29 -14 -53 -34 -48 -41 -32 -55 20 -18 31 22
92 46 153 60 32 7 36 6 26 -6 -7 -8 -14 -13 -16 -10 -6 6 -76 -14 -91 -27 -16
-13 -122 -57 -138 -57 -5 0 -20 -13 -32 -30 -13 -16 -27 -30 -33 -30 -6 0 -31
-13 -56 -30 -24 -16 -49 -30 -54 -30 -6 0 -7 -4 -4 -10 3 -5 0 -7 -8 -4 -19 7
-63 -50 -72 -91 -4 -17 -3 -25 2 -19 9 13 45 15 37 2 -3 -4 -1 -8 4 -8 13 0
10 -32 -4 -45 -13 -12 -26 -45 -17 -45 3 0 21 11 40 26 18 14 33 21 33 17 0
-4 4 -3 8 2 12 17 73 43 142 61 36 9 70 21 75 27 7 7 4 8 -7 4 -12 -4 -18 -1
-18 8 0 8 3 15 8 15 4 0 13 10 21 21 12 21 12 22 -18 16 -18 -4 -31 -2 -31 3
0 6 7 10 15 10 8 0 23 8 33 18 9 9 41 28 70 41 59 27 64 41 7 17 -47 -20 -59
-20 -23 -1 28 16 178 57 215 59 11 0 19 4 16 9 -5 9 21 9 30 0 4 -3 -5 -15
-20 -25 l-28 -19 28 5 c15 3 27 0 27 -5 0 -5 -8 -9 -17 -7 -10 2 -17 -2 -16
-8 1 -5 -59 -41 -133 -79 -74 -37 -134 -72 -134 -76 0 -4 59 13 131 37 147 49
178 55 139 24 -14 -11 -31 -20 -37 -20 -7 0 -13 -5 -13 -11 0 -5 -4 -8 -9 -5
-5 3 -11 -3 -14 -14 -3 -10 0 -21 7 -23 6 -2 -8 -7 -32 -10 -23 -4 -42 -11
-42 -16 0 -4 -21 -16 -47 -25 -92 -33 -98 -37 -83 -46 12 -7 11 -10 -5 -16
-11 -4 -33 -16 -50 -26 l-30 -19 30 7 c28 7 29 6 15 -11 -10 -13 -11 -16 -2
-11 7 4 28 10 45 13 40 6 46 11 27 23 -11 7 -7 10 16 10 16 0 35 5 42 12 9 9
21 8 51 -2 23 -7 60 -10 87 -7 26 3 41 1 33 -3 -18 -10 -160 -46 -218 -55 -24
-4 -60 -14 -79 -22 -21 -9 -77 -16 -136 -18 -147 -4 -144 -4 -126 -15 13 -8
13 -10 -1 -10 -9 0 -22 -7 -29 -15 -7 -8 -16 -13 -20 -10 -4 3 -11 -2 -14 -11
-8 -22 -8 -26 4 -19 6 3 10 2 10 -4 0 -5 3 -18 6 -28 5 -16 4 -16 -10 1 -9 11
-16 15 -16 8 0 -6 10 -18 22 -26 21 -15 21 -16 3 -17 -15 -1 -13 -3 7 -9 45
-13 51 -21 31 -36 -15 -11 -15 -15 -4 -23 11 -7 11 -9 0 -13 -24 -9 -2 -20 43
-22 26 -2 42 -8 41 -15 -5 -19 19 -12 24 7 6 25 83 73 105 66 10 -3 38 -2 63
2 35 5 45 10 45 25 0 17 8 20 45 19 3 0 16 11 29 25 19 21 30 24 61 20 21 -2
44 0 50 5 13 11 125 32 165 31 79 -1 115 -17 129 -57 10 -29 10 -38 -1 -51
-11 -15 -11 -16 5 -10 26 10 47 -3 47 -29 0 -13 5 -24 11 -24 24 0 1 -55 -41
-99 -25 -25 -61 -66 -80 -91 -19 -24 -43 -51 -52 -60 -25 -23 -41 -112 -22
-123 8 -4 14 -14 14 -21 0 -9 9 -12 28 -9 21 4 24 2 12 -6 -13 -9 -13 -11 1
-11 21 0 29 -29 22 -79 -4 -29 -1 -44 11 -56 9 -9 16 -12 16 -6 0 18 29 12 50
-9 11 -11 26 -19 33 -18 6 2 12 -4 12 -12 0 -9 -10 -14 -30 -15 -26 0 -30 -4
-36 -37 -5 -30 -2 -37 13 -41 10 -3 18 -14 18 -25 0 -28 11 -53 20 -47 5 3 20
1 35 -5 18 -7 33 -7 45 0 15 8 31 5 67 -12 38 -18 49 -29 51 -51 4 -30 -30
-69 -86 -99 -30 -16 -31 -19 -20 -45 20 -45 94 -105 106 -86 4 5 19 13 34 16
44 11 58 32 46 70 -5 17 -14 55 -18 82 -17 108 -57 186 -101 200 -9 3 -22 20
-28 37 -8 22 -15 29 -27 24 -25 -10 -64 20 -64 49 0 20 5 25 25 25 13 0 37 12
53 28 16 15 36 32 44 37 22 14 32 75 13 75 -7 0 -17 5 -20 10 -9 15 14 40 37
40 10 0 21 7 24 15 4 8 15 15 25 15 10 0 19 4 19 9 0 12 106 51 128 46 11 -2
35 10 56 27 40 32 46 49 17 41 -10 -3 -22 0 -25 6 -4 6 -1 11 6 11 13 0 -18
21 -62 40 -55 25 -191 -20 -315 -103 -49 -33 -71 -43 -77 -35 -4 7 1 20 12 30
10 9 24 25 32 35 19 27 99 83 118 83 9 0 31 13 49 29 21 18 57 36 99 46 128
33 178 50 180 60 0 6 11 13 24 17 17 4 18 6 5 7 -10 1 -15 6 -12 11 3 6 1 10
-4 10 -6 0 -11 -7 -11 -14 0 -12 -6 -13 -32 -4 -18 6 -27 13 -20 16 6 2 12 10
12 18 0 8 7 14 15 14 9 0 15 9 15 25 0 33 32 34 50 1 7 -13 21 -27 32 -29 11
-3 17 -10 14 -15 -7 -11 28 -45 37 -36 6 7 95 -33 113 -51 6 -6 16 -20 23 -33
6 -12 17 -22 24 -22 7 0 17 -10 22 -22 6 -15 21 -24 40 -26 16 -2 35 -11 42
-20 7 -10 13 -12 13 -7 0 10 33 -55 44 -88 3 -9 10 -16 17 -15 6 2 19 -12 28
-29 23 -41 31 -33 31 29 0 37 4 50 18 55 22 9 41 34 42 56 0 24 20 22 20 -3 0
-11 -4 -20 -10 -20 -5 0 -10 -16 -10 -35 0 -27 4 -35 18 -35 23 0 29 5 88 75
61 72 74 95 74 132 l1 28 15 -29 c9 -16 14 -42 12 -57 -5 -32 13 -35 20 -3 20
93 -39 323 -78 299 -5 -3 -16 5 -24 17 -9 12 -16 19 -16 14 0 -14 -44 56 -60
94 -8 19 -31 62 -50 95 -20 33 -42 80 -49 105 -33 119 -75 239 -98 278 -14 24
-50 67 -81 95 -31 29 -75 73 -99 98 -24 26 -71 61 -103 78 -33 18 -60 34 -60
37 0 2 12 2 28 -1 15 -2 -5 6 -44 20 -78 26 -268 42 -314 26z m200 -28 c17 -9
20 -13 8 -13 -9 0 -20 5 -23 10 -4 6 -15 8 -26 5 -10 -4 -19 -2 -19 3 0 13 30
11 60 -5z m-1006 -541 c2 -4 -16 -15 -40 -24 -49 -17 -50 -15 -7 13 32 20 40
22 47 11z m-64 -107 c0 -2 -10 -9 -22 -15 -22 -11 -22 -10 -4 4 21 17 26 19
26 11z m430 -139 c0 -9 -30 -14 -35 -6 -4 6 3 10 14 10 12 0 21 -2 21 -4z
m1349 -144 c9 -16 6 -18 -20 -14 -28 4 -36 12 -22 25 12 13 32 7 42 -11z
m-546 -43 c-8 -8 -16 -8 -30 0 -16 9 -14 10 12 11 21 0 26 -3 18 -11z m572
-129 c10 -17 -52 -16 -69 1 -6 5 4 9 26 9 20 0 40 -4 43 -10z m-1980 -10 c3
-5 1 -10 -4 -10 -6 0 -11 5 -11 10 0 6 2 10 4 10 3 0 8 -4 11 -10z m985 -214
c0 -9 -71 -48 -77 -43 -3 3 10 15 28 26 33 20 49 26 49 17z m770 -36 c0 -5 -5
-10 -11 -10 -5 0 -7 5 -4 10 3 6 8 10 11 10 2 0 4 -4 4 -10z m-754 -50 c8 0
14 -6 14 -14 0 -15 -36 -31 -89 -40 -32 -6 -33 -5 -26 21 3 15 18 38 33 51
l26 25 14 -22 c8 -11 21 -21 28 -21z"/>
<path d="M3397 3695 c-8 -20 5 -26 26 -10 16 11 16 13 1 19 -21 8 -21 8 -27
-9z"/>
<path d="M3230 3666 c0 -9 4 -16 10 -16 5 0 7 -7 3 -16 -5 -13 -2 -15 18 -9
40 12 44 23 14 35 -15 6 -32 13 -36 16 -5 3 -9 -2 -9 -10z"/>
<path d="M3461 3664 c0 -11 3 -14 6 -6 3 7 2 16 -1 19 -3 4 -6 -2 -5 -13z"/>
<path d="M3218 3624 c0 -10 -1 -25 0 -33 0 -17 -26 -45 -50 -54 -10 -4 -18
-13 -18 -22 0 -18 16 -20 23 -2 4 9 6 9 6 0 1 -7 -5 -18 -12 -25 -17 -15 -10
-51 9 -44 14 5 37 -17 28 -27 -4 -3 -19 -4 -34 0 -22 4 -29 1 -35 -16 -3 -11
-3 -26 1 -33 4 -7 7 -27 6 -45 -3 -40 5 -43 18 -7 7 18 7 30 0 39 -7 9 -6 16
5 25 8 7 15 9 15 4 0 -5 5 -1 11 9 6 9 14 15 20 12 5 -4 10 -1 10 4 1 6 2 15
3 20 0 5 5 13 9 18 5 4 8 4 6 -2 -4 -16 12 -45 21 -40 5 3 6 14 3 25 -4 15 0
20 13 20 16 0 17 2 4 10 -8 5 -15 17 -15 27 0 13 -7 17 -23 15 -12 -2 -29 3
-37 12 -17 16 -13 20 26 29 14 4 26 13 26 21 0 8 -4 13 -9 10 -4 -3 -8 -2 -9
3 -4 48 -18 79 -21 47z m8 -159 c-8 -8 -17 -15 -20 -15 -3 0 -6 7 -6 15 0 9 9
15 21 15 18 0 19 -2 5 -15z"/>
<path d="M3410 3629 c0 -5 5 -7 10 -4 6 3 10 8 10 11 0 2 -4 4 -10 4 -5 0 -10
-5 -10 -11z"/>
<path d="M3365 3612 c-20 -17 -22 -49 -4 -65 5 -4 7 -4 4 -1 -3 4 0 13 7 21 9
11 22 64 15 63 -1 -1 -11 -8 -22 -18z"/>
<path d="M3301 3561 c-9 -6 -10 -14 -4 -25 8 -14 10 -13 21 4 13 21 3 33 -17
21z"/>
<path d="M850 3453 c-19 -8 -43 -25 -53 -39 l-19 -25 51 28 c28 15 53 34 55
41 3 6 4 12 3 11 -1 -1 -18 -8 -37 -16z"/>
<path d="M3102 3451 c-10 -6 -10 -10 3 -21 8 -7 15 -10 15 -7 0 3 3 12 6 21 7
17 -3 20 -24 7z"/>
<path d="M1185 3420 c-8 -13 5 -13 25 0 13 8 13 10 -2 10 -9 0 -20 -4 -23 -10z"/>
<path d="M3383 3424 c3 -3 1 -12 -6 -19 -9 -10 -14 -9 -25 4 -10 12 -12 12 -6
1 6 -12 4 -13 -7 -2 -18 17 -40 15 -33 -3 4 -8 14 -15 23 -15 12 0 13 -2 3 -9
-10 -6 -8 -10 10 -14 35 -10 38 -9 38 14 0 16 3 19 13 12 19 -16 49 -12 42 4
-3 8 -5 17 -5 19 0 2 -4 4 -10 4 -5 0 -7 -8 -4 -17 2 -10 -1 -8 -7 5 -7 12
-17 22 -22 22 -6 0 -8 -3 -4 -6z"/>
<path d="M1200 3396 c0 -2 7 -6 15 -10 8 -3 15 -1 15 4 0 6 -7 10 -15 10 -8 0
-15 -2 -15 -4z"/>
<path d="M3266 3355 c4 -8 10 -12 15 -9 11 6 2 24 -11 24 -5 0 -7 -7 -4 -15z"/>
<path d="M3460 3350 c0 -5 5 -10 11 -10 5 0 7 5 4 10 -3 6 -8 10 -11 10 -2 0
-4 -4 -4 -10z"/>
<path d="M3345 3320 c-7 -18 -41 -23 -66 -10 -12 7 -19 5 -23 -6 -3 -8 -2 -12
4 -9 6 3 10 1 10 -4 0 -6 10 -11 23 -11 18 0 23 -5 22 -22 -1 -13 2 -31 7 -40
6 -13 5 -18 -7 -18 -8 0 -15 -4 -15 -10 0 -5 6 -7 14 -4 7 3 21 -2 30 -11 9
-9 16 -12 16 -6 0 6 3 10 8 10 19 -4 73 15 84 30 12 14 11 15 -5 2 -16 -13
-20 -13 -28 0 -6 10 -9 11 -9 1 0 -7 -4 -10 -10 -7 -5 3 -10 1 -10 -4 0 -6 -9
-11 -19 -11 -14 0 -21 9 -26 31 -7 33 1 51 14 30 6 -9 10 -3 13 18 5 36 -16
77 -27 51z"/>
<path d="M3436 3295 c-11 -8 -15 -15 -9 -15 6 0 16 7 23 15 16 19 11 19 -14 0z"/>
<path d="M3415 3250 c-8 -13 -1 -24 14 -19 6 3 7 10 2 18 -6 10 -10 10 -16 1z"/>
<path d="M3036 3205 c-3 -8 -1 -15 4 -15 6 0 10 7 10 15 0 8 -2 15 -4 15 -2 0
-6 -7 -10 -15z"/>
<path d="M3253 3198 c2 -7 -2 -21 -11 -30 -13 -15 -13 -18 -1 -19 8 -1 18 -1
23 0 5 1 17 -6 27 -15 11 -10 22 -14 27 -9 4 4 1 10 -5 12 -7 3 -13 10 -13 17
0 7 -12 23 -26 35 -15 13 -24 17 -21 9z"/>
<path d="M3474 3189 c-10 -11 -12 -19 -6 -19 7 0 12 5 12 12 0 9 3 9 12 0 10
-10 10 -15 -2 -22 -9 -6 -10 -10 -3 -10 13 0 26 17 29 37 3 21 -24 22 -42 2z"/>
<path d="M3125 3170 c-3 -5 -1 -10 4 -10 6 0 11 5 11 10 0 6 -2 10 -4 10 -3 0
-8 -4 -11 -10z"/>
<path d="M3127 3131 c-4 -17 -3 -21 5 -13 5 5 8 16 6 23 -3 8 -7 3 -11 -10z"/>
<path d="M3351 3122 c-1 -7 -5 -10 -11 -7 -5 3 -10 2 -10 -3 0 -6 7 -13 16
-16 8 -3 12 -10 9 -16 -9 -14 8 -13 23 2 15 15 15 28 1 28 -5 0 -7 -4 -4 -10
3 -5 4 -10 0 -10 -3 0 -10 10 -15 23 -5 12 -9 16 -9 9z"/>
<path d="M3405 3098 c3 -31 -5 -48 -20 -48 -7 0 -16 -7 -19 -16 -5 -12 -1 -14
15 -9 15 5 22 2 26 -13 2 -11 16 -22 29 -25 20 -3 22 -2 13 9 -9 11 -8 14 1
14 7 0 3 9 -9 19 -18 16 -20 23 -12 39 6 11 7 22 4 26 -3 3 5 6 18 6 19 0 21
2 9 10 -8 5 -24 10 -36 10 -15 0 -20 -6 -19 -22z"/>
<path d="M3284 3095 c1 -8 7 -20 14 -27 8 -8 9 -5 5 11 -6 25 -22 38 -19 16z"/>
<path d="M640 3054 c0 -8 5 -12 10 -9 6 3 10 10 10 16 0 5 -4 9 -10 9 -5 0
-10 -7 -10 -16z"/>
<path d="M3440 3066 c0 -4 12 -27 26 -52 21 -36 29 -42 43 -34 19 10 61 10 61
0 0 -3 -5 -11 -10 -16 -6 -6 -12 -26 -13 -45 -1 -19 -6 -37 -12 -41 -5 -4 1
-8 15 -8 14 0 32 -4 40 -9 18 -12 34 -3 22 12 -5 7 -9 20 -9 29 0 13 4 15 17
8 21 -11 55 10 48 31 -2 7 4 21 15 30 14 11 17 18 9 23 -7 4 -12 1 -12 -8 0
-22 -40 -21 -41 2 0 10 -3 12 -6 5 -6 -17 -21 -16 -39 1 -12 13 -12 15 4 18
15 3 15 5 -4 16 -20 11 -46 7 -96 -13 -12 -5 -18 -2 -18 7 0 8 -9 23 -20 33
-11 10 -20 15 -20 11z m200 -117 c0 -5 -11 -14 -25 -19 -22 -8 -30 -20 -26
-42 0 -4 -6 -5 -14 -2 -20 8 -19 16 5 37 11 9 20 23 20 31 0 9 7 12 20 9 11
-3 20 -9 20 -14z"/>
<path d="M864 3045 c-18 -14 -18 -15 5 -11 14 1 27 8 29 14 5 16 -10 15 -34
-3z"/>
<path d="M3327 3043 c-11 -10 -8 -45 2 -38 6 3 9 14 8 25 -1 23 -1 22 -10 13z"/>
<path d="M3698 3013 c7 -3 16 -2 19 1 4 3 -2 6 -13 5 -11 0 -14 -3 -6 -6z"/>
<path d="M3055 2994 c9 -9 19 -13 23 -10 3 4 0 11 -8 16 -24 15 -33 11 -15 -6z"/>
<path d="M3397 2968 c-3 -9 3 -14 14 -14 11 0 18 5 16 10 -5 16 -24 18 -30 4z"/>
<path d="M3740 2970 c0 -5 5 -10 11 -10 5 0 7 5 4 10 -3 6 -8 10 -11 10 -2 0
-4 -4 -4 -10z"/>
<path d="M3445 2950 c-3 -6 1 -7 9 -4 18 7 21 14 7 14 -6 0 -13 -4 -16 -10z"/>
<path d="M3325 2910 c-4 -6 -11 -8 -16 -5 -13 9 -11 -1 9 -38 10 -20 23 -32
31 -29 8 3 11 0 7 -7 -4 -6 -14 -11 -22 -11 -8 0 -14 -7 -14 -15 0 -8 2 -15 5
-15 6 0 33 27 55 55 14 17 13 18 -2 12 -12 -4 -23 1 -33 16 -9 13 -11 23 -5
25 13 5 13 22 1 22 -6 0 -13 -5 -16 -10z"/>
<path d="M3500 2900 c8 -5 13 -10 10 -11 -43 -8 -60 -8 -60 1 0 5 -7 10 -15
10 -8 0 -15 -4 -15 -10 0 -5 5 -10 11 -10 6 0 17 -7 25 -15 22 -21 52 -19 59
5 7 23 -1 40 -18 40 -7 0 -6 -4 3 -10z"/>
<path d="M3260 2874 c0 -8 5 -12 10 -9 6 4 8 11 5 16 -9 14 -15 11 -15 -7z"/>
<path d="M2000 2854 c0 -8 5 -12 10 -9 6 3 10 10 10 16 0 5 -4 9 -10 9 -5 0
-10 -7 -10 -16z"/>
<path d="M3060 2860 c0 -6 7 -10 15 -10 8 0 15 2 15 4 0 2 -7 6 -15 10 -8 3
-15 1 -15 -4z"/>
<path d="M3642 2850 c-48 -26 -50 -31 -15 -28 18 1 29 6 27 10 -3 4 0 9 5 9 6
1 16 2 21 3 12 1 15 20 3 23 -4 1 -23 -7 -41 -17z"/>
<path d="M3715 2845 c0 -14 6 -25 13 -25 8 0 12 9 10 22 -4 30 -23 33 -23 3z"/>
<path d="M3840 2844 c0 -14 4 -23 10 -19 6 3 10 -1 10 -9 0 -9 -4 -16 -10 -16
-5 0 -10 -5 -10 -11 0 -5 5 -7 10 -4 6 3 10 -1 10 -10 0 -9 6 -15 13 -12 6 2
12 8 12 13 0 5 4 15 9 23 6 10 3 20 -12 32 -12 9 -22 22 -22 28 0 6 -4 11 -10
11 -5 0 -10 -12 -10 -26z"/>
<path d="M3125 2850 c-3 -6 1 -7 9 -4 18 7 21 14 7 14 -6 0 -13 -4 -16 -10z"/>
<path d="M3440 2841 c0 -7 -5 -9 -12 -5 -7 5 -8 3 -3 -5 5 -9 10 -10 18 -2 6
6 8 14 4 18 -4 3 -7 1 -7 -6z"/>
<path d="M3525 2840 c3 -5 8 -10 11 -10 2 0 4 5 4 10 0 6 -5 10 -11 10 -5 0
-7 -4 -4 -10z"/>
<path d="M3238 2833 c6 -2 18 -2 25 0 6 3 1 5 -13 5 -14 0 -19 -2 -12 -5z"/>
<path d="M3238 2808 c5 -5 16 -8 23 -6 8 3 3 7 -10 11 -17 4 -21 3 -13 -5z"/>
<path d="M3735 2810 c-4 -6 -1 -10 4 -10 6 0 11 -6 11 -14 0 -15 36 -11 45 4
3 5 -5 6 -17 2 -13 -3 -19 -1 -15 5 4 6 0 13 -8 17 -8 3 -17 1 -20 -4z"/>
<path d="M3507 2790 c-9 -11 -17 -25 -17 -30 0 -19 16 -10 38 20 26 34 8 43
-21 10z"/>
<path d="M3590 2800 c0 -5 7 -10 16 -10 8 0 12 5 9 10 -3 6 -10 10 -16 10 -5
0 -9 -4 -9 -10z"/>
<path d="M3045 2790 c-3 -5 -1 -10 4 -10 6 0 11 5 11 10 0 6 -2 10 -4 10 -3 0
-8 -4 -11 -10z"/>
<path d="M3185 2790 c-8 -14 4 -32 18 -27 7 2 19 -12 29 -32 l16 -36 2 30 c1
17 4 24 7 18 2 -7 11 -13 18 -13 8 0 11 -7 8 -20 -3 -12 0 -20 7 -20 8 0 10
12 7 35 -5 35 6 55 18 35 9 -15 25 -12 25 5 0 8 -7 15 -15 15 -8 0 -15 6 -15
13 0 6 -5 4 -11 -7 -9 -15 -13 -16 -20 -5 -7 11 -12 12 -28 2 -20 -13 -64 -6
-55 8 3 5 3 9 0 9 -3 0 -8 -4 -11 -10z"/>
<path d="M3374 2784 c3 -7 0 -15 -7 -18 -9 -3 -9 -5 0 -5 7 -1 17 7 22 17 8
14 6 19 -5 19 -8 0 -13 -6 -10 -13z"/>
<path d="M3011 2780 c0 -9 8 -23 19 -33 17 -14 20 -14 20 -2 0 8 -6 15 -14 15
-8 0 -17 8 -19 18 -4 13 -5 13 -6 2z"/>
<path d="M3770 2740 c0 -5 4 -10 9 -10 6 0 13 5 16 10 3 6 -1 10 -9 10 -9 0
-16 -4 -16 -10z"/>
<path d="M3645 2730 c-22 -9 -21 -10 12 -14 14 -2 19 2 16 11 -3 7 -6 13 -7
12 0 0 -10 -4 -21 -9z"/>
<path d="M3719 2738 c-6 -14 -4 -66 2 -62 4 2 6 11 2 19 -3 8 0 15 6 15 6 0
11 -3 11 -8 0 -16 66 -6 82 13 20 24 15 33 -7 15 -21 -18 -65 -19 -65 -3 0 11
-27 20 -31 11z"/>
<path d="M3868 2723 c-16 -2 -28 -10 -28 -18 0 -18 32 -28 42 -13 7 10 11 10
21 -2 6 -8 19 -21 28 -27 13 -11 15 -9 15 10 -1 21 -32 59 -45 56 -3 -1 -18
-4 -33 -6z"/>
<path d="M3200 2703 c-13 -15 -12 -16 4 -10 10 4 20 7 22 7 2 0 4 5 4 10 0 15
-13 12 -30 -7z"/>
<path d="M3650 2670 c0 -5 5 -10 10 -10 6 0 10 5 10 10 0 6 -4 10 -10 10 -5 0
-10 -4 -10 -10z"/>
<path d="M3200 2661 c-8 -6 -18 -7 -22 -5 -14 9 -9 -13 6 -25 14 -12 18 -9 29
22 7 20 7 20 -13 8z"/>
<path d="M3916 2642 c-3 -6 -1 -14 5 -17 14 -9 20 -2 10 14 -6 8 -11 9 -15 3z"/>
<path d="M680 2631 c0 -13 28 -71 35 -71 4 0 -24 71 -31 79 -2 2 -4 -1 -4 -8z"/>
<path d="M3685 2630 c-3 -5 -1 -10 4 -10 6 0 11 5 11 10 0 6 -2 10 -4 10 -3 0
-8 -4 -11 -10z"/>
<path d="M760 2581 c0 -36 -3 -42 -18 -37 -17 6 -17 2 4 -61 13 -38 25 -80 27
-94 10 -53 58 -124 119 -178 l37 -33 25 25 c14 14 49 32 78 41 29 9 76 24 104
32 36 12 57 13 69 6 15 -8 9 -12 -36 -26 -30 -9 -65 -25 -79 -37 -21 -17 -21
-20 -5 -14 28 9 55 15 55 10 0 -1 -15 -12 -34 -23 -42 -25 -69 -72 -60 -107 3
-14 10 -25 14 -25 11 0 24 39 16 47 -7 7 19 56 38 72 13 11 17 9 26 -14 7 -17
15 -25 25 -22 9 4 12 1 8 -9 -6 -16 12 -20 22 -4 9 14 36 13 33 -2 -2 -6 4
-13 13 -15 11 -3 23 9 36 34 24 47 17 89 -20 129 -15 16 -27 38 -27 50 0 26
-33 49 -80 56 -45 7 -131 -23 -196 -67 -28 -19 -53 -35 -57 -35 -15 0 -98 191
-112 259 -18 89 -25 100 -25 42z"/>
<path d="M2770 2613 c0 -5 -14 -23 -30 -42 -34 -38 -36 -49 -17 -75 12 -17 14
-17 20 -2 4 9 2 16 -3 16 -6 0 -10 7 -10 16 0 8 4 13 10 9 16 -10 50 28 50 57
0 16 -4 28 -10 28 -5 0 -10 -3 -10 -7z"/>
<path d="M3437 2598 c5 -22 5 -22 -9 -4 -8 10 -21 16 -29 13 -10 -4 -10 -6 3
-6 10 -1 15 -7 12 -15 -3 -8 3 -16 15 -19 12 -3 21 -1 21 3 0 5 9 12 20 15 11
3 20 11 20 16 0 6 -9 5 -22 -2 -18 -10 -20 -9 -15 5 4 10 1 16 -7 16 -10 0
-12 -7 -9 -22z"/>
<path d="M3220 2589 c0 -5 5 -7 10 -4 6 3 10 8 10 11 0 2 -4 4 -10 4 -5 0 -10
-5 -10 -11z"/>
<path d="M2996 2545 c-9 -26 -7 -32 5 -12 6 10 9 21 6 23 -2 3 -7 -2 -11 -11z"/>
<path d="M3411 2557 c2 -1 13 -9 24 -17 19 -14 19 -14 6 3 -7 9 -18 17 -24 17
-6 0 -8 -1 -6 -3z"/>
<path d="M3510 2539 c0 -6 -6 -7 -12 -3 -9 5 -9 2 1 -9 12 -15 9 -21 -11 -18
-5 0 -8 -6 -8 -14 0 -8 6 -15 14 -15 8 0 16 -5 18 -12 3 -9 6 -9 12 0 4 7 2
12 -3 12 -6 0 -11 5 -11 10 0 6 7 10 15 10 8 0 15 9 15 19 0 10 -7 21 -15 25
-8 3 -15 1 -15 -5z"/>
<path d="M3395 2531 c-4 -7 0 -8 11 -4 13 5 16 3 11 -10 -3 -9 -2 -19 2 -21 5
-3 8 4 7 16 -1 23 -20 35 -31 19z"/>
<path d="M3052 2508 c2 -6 10 -14 16 -16 7 -2 10 2 6 12 -7 18 -28 22 -22 4z"/>
<path d="M3590 2485 c7 -9 15 -13 17 -11 7 7 -7 26 -19 26 -6 0 -6 -6 2 -15z"/>
<path d="M5 2471 c-3 -5 -1 -12 5 -16 12 -7 30 2 30 16 0 12 -27 12 -35 0z"/>
<path d="M2613 2443 c-7 -2 -13 -13 -13 -23 0 -10 -6 -21 -12 -23 -7 -3 -1 -6
13 -6 22 -1 27 4 31 29 5 30 3 32 -19 23z"/>
<path d="M2530 2420 c0 -5 5 -10 11 -10 5 0 7 5 4 10 -3 6 -8 10 -11 10 -2 0
-4 -4 -4 -10z"/>
<path d="M3075 2409 c-4 -6 -4 -13 -1 -16 3 -4 6 -1 6 6 0 7 4 10 9 6 5 -3 12
-1 16 5 3 5 -1 10 -9 10 -8 0 -18 -5 -21 -11z"/>
<path d="M40 2401 c0 -16 27 -31 43 -25 14 5 14 8 2 20 -15 16 -45 19 -45 5z"/>
<path d="M3541 2379 c-10 -23 -16 -28 -22 -18 -8 11 -12 11 -23 -3 -7 -10 -16
-15 -19 -11 -4 3 -7 2 -7 -4 0 -6 -7 -14 -16 -17 -13 -5 -15 -1 -10 19 6 24
-7 35 -19 15 -3 -5 -12 -7 -20 -3 -16 5 -19 -5 -10 -29 7 -17 81 -16 98 1 6 6
19 11 29 11 10 0 18 6 18 14 0 8 5 16 11 18 6 2 10 12 8 21 -3 13 -7 10 -18
-14z"/>
<path d="M3675 2400 c-3 -6 1 -7 9 -4 18 7 21 14 7 14 -6 0 -13 -4 -16 -10z"/>
<path d="M2699 2385 c-8 -8 -35 -21 -59 -28 -35 -10 -44 -18 -42 -32 2 -12 -1
-16 -11 -12 -10 4 -16 -2 -20 -19 -2 -13 -1 -27 3 -29 5 -3 9 -41 9 -85 0 -44
1 -83 2 -87 6 -34 -3 -73 -16 -73 -8 0 -15 -4 -15 -10 0 -5 5 -10 11 -10 5 0
7 -5 4 -10 -4 -6 -11 -8 -16 -5 -5 4 -12 -2 -15 -12 -3 -10 -11 -29 -18 -43
-7 -14 -18 -44 -26 -67 -7 -24 -20 -43 -31 -46 -10 -3 -21 -18 -25 -33 -4 -16
-10 -31 -13 -34 -3 -3 -14 -21 -23 -40 -22 -44 -38 -68 -60 -92 -10 -10 -18
-24 -18 -30 0 -7 -18 -33 -40 -58 -22 -25 -40 -49 -40 -54 0 -5 -9 -18 -21
-30 -34 -34 -79 -98 -79 -111 0 -12 -99 -65 -120 -65 -6 0 -10 -7 -10 -15 0
-8 -7 -15 -16 -15 -8 0 -13 -4 -9 -10 3 -5 12 -7 20 -3 9 3 15 -1 15 -11 0 -9
-5 -16 -12 -16 -6 0 -9 -3 -6 -6 3 -3 24 4 47 15 45 23 104 30 83 9 -18 -18
-14 -38 7 -38 11 0 21 -4 23 -10 2 -5 23 -12 48 -14 25 -2 51 -6 59 -8 8 -2
29 18 48 47 22 33 39 49 51 47 14 -3 14 -1 -3 11 -19 15 -19 16 -2 35 10 11
17 23 16 28 -3 22 15 54 32 54 35 0 55 -74 22 -83 -14 -4 -13 -5 4 -6 17 -1
21 -5 16 -18 -4 -10 -2 -14 5 -9 6 3 13 2 17 -4 3 -5 3 -10 -2 -10 -4 0 -13
-12 -20 -26 -9 -20 -9 -26 3 -31 15 -6 20 -33 5 -33 -16 0 -19 -38 -3 -45 13
-5 12 -8 -4 -20 -10 -8 -15 -15 -9 -15 21 0 -41 -34 -94 -51 -67 -21 -48 -25
27 -5 137 37 320 185 409 331 48 81 138 341 127 370 -7 17 9 20 36 5 16 -9 18
-19 14 -66 -2 -31 -8 -64 -13 -73 -4 -9 -11 -31 -15 -49 -3 -19 -14 -46 -24
-60 -18 -26 -37 -79 -34 -94 1 -5 -3 -8 -9 -8 -5 0 -8 -3 -6 -7 3 -5 -3 -24
-13 -43 -10 -19 -25 -49 -33 -65 -22 -48 -112 -139 -247 -252 -99 -83 -150
-117 -245 -165 l-120 -60 -115 3 c-63 2 -121 0 -128 -5 -7 -4 -14 -1 -18 8 -3
9 -17 16 -29 16 -13 0 -26 4 -30 10 -3 5 -12 7 -20 4 -8 -4 -12 -11 -8 -18 4
-6 -6 -3 -21 8 -16 10 -26 14 -22 8 3 -5 0 -15 -8 -21 -11 -10 -16 -2 -26 41
-7 29 -28 103 -46 163 -19 61 -34 119 -34 130 0 22 -127 155 -148 155 -7 0
-11 -4 -8 -9 3 -5 8 -26 12 -47 3 -22 13 -68 23 -104 16 -58 20 -77 23 -130 1
-8 7 -19 14 -25 6 -5 15 -36 18 -67 3 -31 15 -80 26 -110 11 -29 20 -67 20
-85 0 -17 5 -35 10 -38 6 -3 10 -19 10 -35 0 -23 -5 -31 -25 -36 -14 -3 -36
-4 -49 -2 -31 6 -52 -32 -35 -64 11 -20 11 -20 32 0 12 11 32 23 45 27 18 5
22 3 22 -15 0 -12 -10 -30 -23 -40 -24 -19 -29 -52 -30 -190 0 -30 -5 -58 -11
-62 -6 -4 -7 -10 -3 -14 3 -4 13 -1 22 6 8 7 15 9 14 4 0 -10 -59 -59 -62 -53
-2 4 -71 86 -118 142 -10 12 -34 42 -54 65 -19 24 -35 38 -35 31 0 -7 46 -107
102 -221 l102 -208 203 0 203 0 26 40 c17 25 24 47 21 61 -4 16 -3 19 5 11 6
-6 16 -8 22 -6 8 3 11 -10 10 -43 -2 -56 3 -68 21 -53 9 7 15 8 20 1 4 -7 311
-11 940 -11 l935 0 0 734 c0 404 -4 736 -8 738 -5 2 -12 16 -16 32 -6 23 -4
27 8 23 27 -11 21 61 -6 84 l-23 19 23 6 c19 6 22 12 20 45 -2 33 -5 39 -25
39 -16 0 -23 -6 -23 -20 0 -20 -27 -40 -56 -40 -13 0 -14 3 -5 14 6 7 9 21 5
30 -3 9 -1 17 5 17 20 3 26 4 38 12 6 4 18 5 26 1 10 -4 16 5 21 31 4 19 4 40
1 45 -3 6 -1 10 4 10 19 0 12 17 -8 23 -14 3 -18 1 -14 -9 3 -8 0 -14 -6 -14
-6 0 -8 -6 -5 -14 3 -8 -3 -19 -15 -26 -14 -7 -21 -7 -21 0 0 5 -7 10 -15 10
-8 0 -15 5 -15 10 0 14 13 13 28 -2 8 -8 12 -8 12 -1 0 6 -20 17 -45 25 -35
12 -45 12 -45 3 0 -7 7 -16 16 -19 9 -3 14 -12 11 -19 -2 -6 2 -20 10 -29 13
-15 12 -18 -6 -27 -17 -10 -19 -16 -11 -37 6 -14 7 -30 4 -35 -9 -14 26 -49
48 -49 11 0 17 -4 13 -9 -3 -5 6 -18 20 -29 14 -11 21 -23 16 -26 -5 -4 -12
-2 -16 4 -4 6 -10 8 -14 5 -10 -6 -45 25 -49 44 -2 8 -17 27 -35 44 -18 17
-31 34 -29 39 1 5 -3 6 -9 2 -7 -4 -17 0 -23 8 -6 8 -35 30 -64 47 -29 19 -49
37 -45 43 3 6 1 8 -4 5 -6 -4 -24 0 -39 8 -16 8 -34 15 -39 15 -6 0 -34 16
-64 35 -29 19 -56 35 -59 35 -4 0 -18 9 -32 20 -14 11 -35 20 -48 20 -13 0
-32 5 -44 11 -21 12 -92 3 -84 -10 3 -4 -18 -8 -47 -9 -28 0 -68 -4 -87 -7
-43 -7 -59 7 -71 63 -7 34 -8 33 -6 -15 2 -49 0 -52 -30 -66 -28 -12 -33 -12
-37 0 -3 8 -10 11 -16 8 -5 -3 -10 1 -10 9 0 24 -23 15 -42 -16 -21 -33 -61
-45 -93 -28 -13 7 -28 9 -33 6 -16 -10 -112 95 -112 122 0 13 4 20 10 17 6 -3
10 0 10 7 0 10 3 9 9 -1 8 -12 11 -9 16 12 4 15 5 34 1 42 -6 17 -26 21 -26 5
0 -5 -7 -10 -16 -10 -8 0 -14 6 -12 13 2 6 10 33 17 60 7 26 18 47 25 47 13 0
21 184 8 206 -7 12 -10 12 -23 -1z m1216 -635 c3 -5 1 -10 -4 -10 -6 0 -11 5
-11 10 0 6 2 10 4 10 3 0 8 -4 11 -10z m-923 -242 c-32 -90 -60 -151 -87 -183
l-17 -20 7 20 c4 11 8 25 9 30 1 6 14 36 29 69 15 32 27 65 27 73 0 9 9 32 19
52 11 20 23 45 27 56 6 16 8 17 11 4 2 -9 -9 -54 -25 -101z m948 32 c0 -5 -5
-10 -11 -10 -5 0 -7 5 -4 10 3 6 8 10 11 10 2 0 4 -4 4 -10z m18 -88 c3 -9 -2
-13 -14 -10 -9 1 -19 9 -22 16 -3 9 2 13 14 10 9 -1 19 -9 22 -16z m-2067
-752 c20 -19 61 -57 92 -85 55 -48 63 -73 14 -41 -24 17 -37 13 -37 -11 0 -8
5 -11 12 -7 7 4 8 3 4 -5 -4 -6 -12 -9 -17 -6 -5 4 -9 2 -9 -2 0 -7 -33 -23
-76 -36 -8 -3 -28 60 -44 138 -7 33 -16 73 -21 88 -4 15 -5 35 -2 44 6 14 10
12 27 -12 12 -17 37 -46 57 -65z m779 -270 c0 -5 -2 -10 -4 -10 -3 0 -8 5 -11
10 -3 6 -1 10 4 10 6 0 11 -4 11 -10z m-683 -62 c-3 -8 -6 -5 -6 6 -1 11 2 17
5 13 3 -3 4 -12 1 -19z m440 -93 c-4 -8 -11 -15 -17 -15 -6 0 -6 7 2 20 14 22
24 19 15 -5z m-746 -62 c-8 -15 -9 -12 -6 12 5 40 7 43 12 23 2 -10 0 -25 -6
-35z m-1 -64 c0 -11 -27 -12 -34 -1 -2 4 4 9 15 9 10 1 19 -2 19 -8z m338 -90
c-3 -8 -7 -3 -11 10 -4 17 -3 21 5 13 5 -5 8 -16 6 -23z"/>
<path d="M3576 2388 c4 -6 -1 -17 -11 -25 -14 -9 -15 -13 -4 -13 19 1 49 24
49 39 0 6 -9 11 -21 11 -13 0 -18 -4 -13 -12z"/>
<path d="M197 2383 c-18 -5 -18 -6 2 -19 12 -9 18 -21 14 -30 -3 -8 4 -26 17
-39 24 -26 22 -42 -4 -32 -9 4 -13 13 -10 22 5 11 2 14 -10 9 -11 -4 -16 -1
-16 10 0 9 -8 16 -18 16 -10 0 -22 3 -26 8 -4 4 -39 7 -77 7 l-69 0 0 -364 c0
-234 4 -369 11 -377 7 -8 7 -14 -1 -19 -5 -3 -10 -33 -10 -65 l0 -59 33 14
c17 7 37 14 42 14 37 4 84 16 109 29 22 10 46 13 90 8 68 -7 230 -24 234 -25
1 -1 2 -11 2 -24 0 -29 46 -47 116 -46 62 1 35 14 -48 24 -39 5 -58 12 -58 21
0 11 20 14 83 16 45 0 68 3 50 5 -44 6 -61 28 -34 45 12 7 21 23 21 36 0 16 4
21 13 16 10 -6 10 -4 0 7 -19 20 -16 29 12 29 14 0 25 5 25 11 0 5 5 7 10 4 6
-3 10 -1 10 6 0 6 8 9 18 7 14 -4 17 1 17 28 -1 18 -7 39 -14 47 -12 15 -2 29
24 33 6 0 15 2 22 2 7 1 10 9 7 17 -4 8 -10 13 -15 10 -4 -3 -13 4 -20 17 -6
12 -20 31 -30 42 -24 26 -24 42 1 49 28 7 25 40 -5 68 -13 13 -25 28 -25 32 0
4 -8 17 -19 28 -13 15 -25 18 -45 13 -20 -5 -26 -2 -26 10 0 10 -12 28 -27 42
-22 19 -35 23 -61 18 -23 -3 -32 -2 -27 5 3 7 0 8 -9 5 -9 -4 -18 1 -22 10 -3
9 -14 16 -24 16 -10 0 -25 7 -33 15 -8 8 -17 11 -20 8 -6 -5 -37 21 -37 31 0
3 7 6 15 6 8 0 19 9 25 20 8 16 8 20 -4 20 -8 0 -18 10 -22 23 -9 28 -22 37
-57 37 -16 0 -26 4 -22 9 3 5 -9 20 -27 32 -17 13 -26 25 -20 27 7 2 10 8 6
13 -5 9 -8 10 -37 2z m450 -368 c0 -8 -4 -12 -9 -9 -5 3 -6 10 -3 15 9 13 12
11 12 -6z m-601 -192 c-7 -7 -26 7 -26 19 0 6 6 6 15 -2 9 -7 13 -15 11 -17z
m151 -189 c2 -6 -5 -14 -16 -17 -24 -6 -31 0 -24 19 6 17 34 15 40 -2z m-17
-64 c0 -9 -25 -20 -46 -20 -20 0 -17 28 4 32 21 5 42 -1 42 -12z m-100 0 c0
-5 -4 -10 -10 -10 -5 0 -10 5 -10 10 0 6 5 10 10 10 6 0 10 -4 10 -10z m135
-21 c-10 -15 -25 -10 -19 6 4 8 10 12 15 9 5 -3 7 -10 4 -15z m280 -5 c8 -11
15 -23 15 -28 0 -11 -177 2 -212 16 -16 6 -28 17 -28 24 0 11 21 13 106 10 88
-3 107 -7 119 -22z m-430 -15 c-11 -4 -29 -8 -39 -8 -18 -1 -18 0 -1 19 14 16
21 17 39 8 20 -11 20 -11 1 -19z m515 -19 c0 -5 -2 -10 -4 -10 -3 0 -8 5 -11
10 -3 6 -1 10 4 10 6 0 11 -4 11 -10z m-525 -10 c-27 -12 -35 -12 -35 0 0 6
12 10 28 9 24 0 25 -1 7 -9z"/>
<path d="M3626 2365 c-3 -9 -17 -20 -31 -25 -16 -6 -23 -14 -19 -25 3 -8 9
-13 14 -10 4 2 17 -5 29 -16 12 -12 24 -19 27 -17 2 3 -5 13 -16 23 -25 23
-25 33 2 54 13 11 17 20 11 24 -6 4 -14 0 -17 -8z"/>
<path d="M100 2360 c0 -5 5 -10 11 -10 5 0 7 5 4 10 -3 6 -8 10 -11 10 -2 0
-4 -4 -4 -10z"/>
<path d="M3080 2338 c-29 -10 -59 -46 -60 -70 0 -9 -6 -18 -12 -21 -7 -2 13
-3 45 -1 54 3 76 -7 42 -20 -8 -3 -14 -13 -14 -23 1 -17 2 -17 6 0 4 14 11 17
28 13 28 -7 59 4 63 22 1 8 -2 11 -7 8 -23 -14 -36 5 -33 48 4 48 -12 61 -58
44z m25 -29 c-6 -9 -45 -8 -45 1 0 13 12 18 30 13 11 -3 17 -9 15 -14z m-25
-23 c0 -2 -7 -6 -15 -10 -8 -3 -15 -1 -15 4 0 6 7 10 15 10 8 0 15 -2 15 -4z"/>
<path d="M2760 2330 c0 -5 5 -10 10 -10 6 0 10 5 10 10 0 6 -4 10 -10 10 -5 0
-10 -4 -10 -10z"/>
<path d="M3335 2330 c3 -5 8 -10 11 -10 2 0 4 5 4 10 0 6 -5 10 -11 10 -5 0
-7 -4 -4 -10z"/>
<path d="M2845 2310 c-3 -5 -1 -10 4 -10 6 0 11 5 11 10 0 6 -2 10 -4 10 -3 0
-8 -4 -11 -10z"/>
<path d="M3490 2300 c0 -11 -4 -20 -10 -20 -5 0 -10 -6 -10 -12 1 -7 9 -3 19
9 10 12 21 19 25 16 3 -4 6 1 6 10 0 10 -7 17 -15 17 -8 0 -15 -9 -15 -20z"/>
<path d="M3402 2299 c-13 -5 -20 -13 -17 -19 9 -14 24 -12 41 4 18 19 6 26
-24 15z"/>
<path d="M3260 2250 c0 -5 5 -10 10 -10 6 0 10 5 10 10 0 6 -4 10 -10 10 -5 0
-10 -4 -10 -10z"/>
<path d="M3880 2250 c-8 -5 -10 -10 -5 -10 6 0 17 5 25 10 8 5 11 10 5 10 -5
0 -17 -5 -25 -10z"/>
<path d="M2434 2229 c0 -11 5 -18 10 -16 16 5 18 24 4 30 -9 3 -14 -3 -14 -14z"/>
<path d="M2740 2243 c0 -6 -3 -20 -6 -30 -7 -17 -6 -17 12 -1 14 14 16 21 6
30 -8 8 -12 9 -12 1z"/>
<path d="M2781 2223 c-6 -14 -9 -28 -7 -31 3 -3 9 4 13 14 3 10 11 22 16 25 6
4 5 9 0 12 -6 4 -15 -5 -22 -20z"/>
<path d="M2880 2219 c0 -5 5 -7 10 -4 6 3 10 8 10 11 0 2 -4 4 -10 4 -5 0 -10
-5 -10 -11z"/>
<path d="M3410 2215 c-7 -9 -8 -15 -2 -15 5 0 12 7 16 15 3 8 4 15 2 15 -2 0
-9 -7 -16 -15z"/>
<path d="M3302 2195 c-12 -15 -23 -21 -27 -15 -3 5 -10 10 -16 10 -5 0 0 -9
11 -20 24 -24 30 -25 30 -5 0 8 3 15 8 15 4 0 13 9 20 20 18 29 -3 25 -26 -5z"/>
<path d="M2872 2180 c-15 -24 -15 -30 -1 -30 5 0 8 4 5 9 -4 5 -1 11 5 13 7 2
10 9 8 16 -3 8 -9 5 -17 -8z"/>
<path d="M3190 2191 c0 -6 5 -13 10 -16 6 -3 10 1 10 9 0 9 -4 16 -10 16 -5 0
-10 -4 -10 -9z"/>
<path d="M3505 2190 c3 -5 8 -10 11 -10 2 0 4 5 4 10 0 6 -5 10 -11 10 -5 0
-7 -4 -4 -10z"/>
<path d="M3340 2180 c0 -5 7 -7 15 -4 8 4 15 8 15 10 0 2 -7 4 -15 4 -8 0 -15
-4 -15 -10z"/>
<path d="M3840 2170 c0 -6 4 -10 9 -10 5 0 17 -7 26 -16 13 -13 18 -14 31 -3
8 6 11 15 7 19 -14 12 -73 20 -73 10z"/>
<path d="M3426 2161 c-4 -6 -1 -11 6 -11 10 0 9 -3 -2 -10 -8 -5 -12 -12 -9
-15 11 -10 28 20 20 34 -6 9 -11 10 -15 2z"/>
<path d="M480 2152 c0 -4 9 -13 20 -20 18 -11 20 -10 20 8 0 13 -7 20 -20 20
-11 0 -20 -3 -20 -8z"/>
<path d="M2731 2144 c-1 -12 6 -24 14 -28 9 -3 15 0 15 8 0 8 6 17 13 19 7 3
5 6 -5 6 -10 1 -18 -5 -19 -11 0 -7 -4 -4 -9 7 -8 19 -9 19 -9 -1z"/>
<path d="M3336 2153 c-18 -5 -18 -6 5 -19 18 -10 20 -13 7 -14 -10 0 -18 -7
-18 -15 0 -13 4 -14 20 -5 11 6 25 8 31 5 14 -9 -59 -46 -98 -50 -24 -3 -30 0
-26 11 3 8 1 14 -4 14 -5 0 -14 -14 -20 -31 -10 -25 -10 -30 2 -25 29 11 90
18 76 8 -10 -7 -5 -11 19 -14 21 -3 34 0 37 9 3 9 13 11 27 7 21 -6 21 -6 1
10 -19 15 -19 17 -2 27 9 5 15 14 12 20 -4 5 -1 9 5 9 7 0 6 5 -2 14 -7 7 -19
11 -25 9 -8 -3 -13 3 -13 16 0 22 -1 22 -34 14z"/>
<path d="M3260 2121 c-6 -12 -6 -22 -1 -26 10 -6 14 -1 24 28 9 23 -10 22 -23
-2z"/>
<path d="M3176 2115 c-4 -11 1 -15 17 -15 16 0 18 3 8 9 -11 7 -11 9 0 14 10
4 10 6 -2 6 -9 1 -19 -6 -23 -14z"/>
<path d="M3006 2112 c-12 -20 11 -40 27 -23 8 9 8 12 0 7 -6 -3 -13 1 -15 11
-3 14 -5 15 -12 5z"/>
<path d="M3072 2088 c-14 -14 -16 -28 -3 -28 9 0 24 30 18 36 -2 2 -9 -2 -15
-8z"/>
<path d="M3121 2093 c0 -6 -4 -20 -7 -30 -5 -14 -4 -15 5 -7 7 7 11 20 8 30
-3 11 -5 14 -6 7z"/>
<path d="M3985 2080 c-3 -5 -1 -10 4 -10 6 0 11 5 11 10 0 6 -2 10 -4 10 -3 0
-8 -4 -11 -10z"/>
<path d="M3185 2060 c-7 -12 2 -30 16 -30 12 0 12 27 0 35 -5 3 -12 1 -16 -5z"/>
<path d="M3770 2055 c0 -8 7 -15 15 -15 8 0 15 7 15 15 0 8 -7 15 -15 15 -8 0
-15 -7 -15 -15z"/>
<path d="M2551 2044 c0 -11 3 -14 6 -6 3 7 2 16 -1 19 -3 4 -6 -2 -5 -13z"/>
<path d="M3948 2048 c9 -9 15 -9 24 0 9 9 7 12 -12 12 -19 0 -21 -3 -12 -12z"/>
<path d="M3540 2024 c0 -8 5 -12 10 -9 6 4 8 11 5 16 -9 14 -15 11 -15 -7z"/>
<path d="M3666 2015 c4 -8 10 -12 15 -9 11 6 2 24 -11 24 -5 0 -7 -7 -4 -15z"/>
<path d="M3768 2017 c-8 -24 -3 -92 7 -94 13 -4 14 20 0 30 -6 4 -5 10 5 16 8
6 11 13 7 17 -4 4 -2 13 3 19 7 9 6 14 -4 18 -8 3 -16 0 -18 -6z"/>
<path d="M2851 2006 c-8 -9 -11 -19 -7 -23 9 -9 29 13 24 27 -2 8 -8 7 -17 -4z"/>
<path d="M3300 1999 c0 -5 5 -7 10 -4 6 3 10 8 10 11 0 2 -4 4 -10 4 -5 0 -10
-5 -10 -11z"/>
<path d="M3360 1997 c0 -7 6 -22 14 -32 13 -18 14 -18 32 0 18 18 18 18 1 12
-15 -6 -17 -3 -12 13 5 16 2 20 -14 20 -12 0 -21 -6 -21 -13z"/>
<path d="M3965 2000 c3 -5 8 -10 11 -10 2 0 4 5 4 10 0 6 -5 10 -11 10 -5 0
-7 -4 -4 -10z"/>
<path d="M2951 1974 c0 -11 3 -14 6 -6 3 7 2 16 -1 19 -3 4 -6 -2 -5 -13z"/>
<path d="M3530 1962 c0 -17 4 -34 10 -37 6 -4 7 6 3 27 -8 44 -13 48 -13 10z"/>
<path d="M3480 1969 c0 -5 5 -7 10 -4 6 3 10 8 10 11 0 2 -4 4 -10 4 -5 0 -10
-5 -10 -11z"/>
<path d="M3435 1950 c-3 -5 -2 -10 4 -10 5 0 13 5 16 10 3 6 2 10 -4 10 -5 0
-13 -4 -16 -10z"/>
<path d="M3505 1951 c3 -5 -4 -12 -15 -16 -11 -3 -20 -14 -20 -23 1 -15 2 -16
13 -1 7 9 18 14 25 12 7 -3 12 4 12 16 0 12 -5 21 -11 21 -5 0 -8 -4 -4 -9z"/>
<path d="M3120 1930 c0 -5 5 -10 11 -10 5 0 7 5 4 10 -3 6 -8 10 -11 10 -2 0
-4 -4 -4 -10z"/>
<path d="M3942 1918 c5 -15 28 -23 28 -10 0 5 -7 13 -16 16 -10 4 -14 1 -12
-6z"/>
<path d="M1553 1900 c-24 -14 -33 -27 -33 -46 0 -26 1 -26 25 -10 13 9 37 16
53 16 31 0 68 32 57 49 -10 18 -67 12 -102 -9z"/>
<path d="M3930 1886 c0 -8 -5 -16 -11 -18 -7 -2 -5 -9 5 -17 14 -12 16 -12 10
3 -3 9 -1 16 5 16 6 0 11 7 11 15 0 8 -4 15 -10 15 -5 0 -10 -6 -10 -14z"/>
<path d="M3770 1855 c0 -9 -8 -19 -17 -23 -22 -8 -31 -37 -10 -29 8 3 19 1 25
-5 6 -6 16 -7 23 -2 9 5 6 10 -10 16 -20 7 -21 9 -7 24 18 18 21 34 6 34 -5 0
-10 -7 -10 -15z"/>
<path d="M3690 1822 c0 -12 19 -26 26 -19 2 2 -2 10 -11 17 -9 8 -15 8 -15 2z"/>
<path d="M810 1813 c1 -28 60 -61 60 -34 0 5 12 12 28 16 l27 8 -25 7 c-16 5
-29 2 -36 -7 -10 -11 -13 -11 -24 2 -13 16 -30 20 -30 8z"/>
<path d="M1395 1800 c3 -5 18 -10 33 -9 24 0 25 1 7 9 -28 12 -47 12 -40 0z"/>
<path d="M935 1780 c3 -5 8 -10 11 -10 2 0 4 5 4 10 0 6 -5 10 -11 10 -5 0 -7
-4 -4 -10z"/>
<path d="M3705 1781 c-3 -5 -2 -12 3 -15 5 -3 9 1 9 9 0 17 -3 19 -12 6z"/>
<path d="M3746 1765 c-19 -14 -19 -15 7 -15 17 0 27 5 27 15 0 19 -9 19 -34 0z"/>
<path d="M946 1751 c-3 -5 1 -11 9 -15 8 -3 15 -1 15 4 0 13 -18 22 -24 11z"/>
<path d="M1010 1750 c-19 -6 -20 -8 -6 -9 12 -1 16 -6 12 -16 -4 -11 1 -15 19
-15 20 0 25 5 25 25 0 26 -8 28 -50 15z"/>
<path d="M3810 1740 c0 -5 5 -10 10 -10 6 0 10 5 10 10 0 6 -4 10 -10 10 -5 0
-10 -4 -10 -10z"/>
<path d="M858 1717 c26 -28 21 -67 -9 -60 -10 3 -17 9 -14 13 3 4 -6 7 -19 6
-15 0 -21 -5 -16 -11 5 -5 8 -14 8 -20 -1 -14 -32 -35 -38 -25 -3 5 -13 3 -23
-5 -23 -17 -12 -43 22 -51 14 -4 30 -9 35 -12 14 -8 66 -10 66 -3 0 4 35 4 77
0 65 -7 163 -4 169 4 0 1 4 21 8 45 4 29 3 41 -4 37 -5 -3 -10 0 -10 7 0 9
-12 13 -35 13 -19 -1 -35 1 -35 5 0 4 -11 12 -25 18 -14 6 -25 20 -26 29 0 11
-3 13 -6 6 -2 -7 -12 -13 -21 -13 -16 -1 -16 -2 0 -14 10 -7 15 -16 12 -19 -8
-8 -34 18 -34 33 0 6 -7 18 -15 26 -13 13 -15 12 -21 -11 -6 -26 -27 -25 -22
2 2 10 -6 17 -21 20 l-25 3 22 -23z m70 -100 c15 -12 16 -37 1 -37 -5 0 -7 5
-4 10 3 6 -5 14 -19 20 -14 5 -26 14 -26 19 0 11 27 4 48 -12z m149 17 c-3 -3
-12 -4 -19 -1 -8 3 -5 6 6 6 11 1 17 -2 13 -5z m-177 -43 c0 -17 -18 -21 -24
-6 -3 9 0 15 9 15 8 0 15 -4 15 -9z m184 -6 c-4 -8 -13 -15 -21 -15 -13 0 -13
3 -3 15 7 8 16 15 21 15 5 0 6 -7 3 -15z"/>
<path d="M820 1710 c0 -5 5 -10 10 -10 6 0 10 5 10 10 0 6 -4 10 -10 10 -5 0
-10 -4 -10 -10z"/>
<path d="M1880 1689 c-14 -4 -46 -13 -72 -20 -32 -8 -49 -18 -54 -31 -4 -14
-12 -18 -28 -14 -15 4 -29 -3 -49 -23 -24 -26 -131 -71 -169 -71 -22 0 -41
-17 -33 -30 5 -8 11 -8 23 3 10 8 51 20 92 27 41 7 91 19 110 27 22 9 48 12
70 7 19 -3 29 -9 23 -11 -7 -3 -13 -9 -13 -14 0 -21 39 -6 121 49 74 48 88 61
88 85 1 25 -1 27 -41 26 -24 -1 -54 -5 -68 -10z"/>
<path d="M706 1603 c-6 -14 -5 -15 5 -6 7 7 10 15 7 18 -3 3 -9 -2 -12 -12z"/>
<path d="M670 1580 c0 -5 5 -10 11 -10 5 0 7 5 4 10 -3 6 -8 10 -11 10 -2 0
-4 -4 -4 -10z"/>
<path d="M791 1502 c0 -7 -11 -17 -23 -22 -20 -8 -18 -9 14 -9 20 -1 43 -8 51
-16 12 -12 17 -12 26 -1 14 17 4 26 -30 26 -18 0 -29 6 -32 18 -3 9 -5 11 -6
4z"/>
<path d="M416 1467 c4 -12 7 -33 6 -47 -2 -21 0 -23 12 -10 18 18 10 66 -11
74 -11 5 -13 1 -7 -17z"/>
<path d="M1312 1468 c-21 -21 -13 -43 21 -54 17 -6 40 -14 50 -19 25 -11 21 6
-14 48 -33 40 -39 43 -57 25z"/>
<path d="M205 1450 c-4 -6 3 -10 14 -10 25 0 27 6 6 13 -8 4 -17 2 -20 -3z"/>
<path d="M480 1440 c0 -5 5 -10 11 -10 5 0 7 5 4 10 -3 6 -8 10 -11 10 -2 0
-4 -4 -4 -10z"/>
<path d="M318 1433 c7 -3 16 -2 19 1 4 3 -2 6 -13 5 -11 0 -14 -3 -6 -6z"/>
<path d="M1730 1417 c0 -7 10 -18 23 -26 15 -9 18 -9 10 -1 -6 7 -9 19 -6 26
3 8 -1 14 -11 14 -9 0 -16 -6 -16 -13z"/>
<path d="M1273 1358 c-18 -11 -33 -28 -33 -38 0 -17 2 -18 33 -3 46 23 57 33
50 49 -7 18 -10 17 -50 -8z"/>
<path d="M1416 1315 c-12 -48 -16 -194 -6 -200 19 -12 10 -51 -16 -74 -16 -14
-23 -28 -19 -38 3 -9 1 -20 -5 -23 -24 -15 16 -16 61 -3 46 13 47 14 39 46
-14 54 -30 175 -31 230 0 28 -4 61 -8 72 -7 17 -9 16 -15 -10z"/>
<path d="M2258 993 c6 -2 18 -2 25 0 6 3 1 5 -13 5 -14 0 -19 -2 -12 -5z"/>
<path d="M5 970 c3 -5 8 -10 11 -10 2 0 4 5 4 10 0 6 -5 10 -11 10 -5 0 -7 -4
-4 -10z"/>
<path d="M1812 960 c0 -14 2 -19 5 -12 2 6 2 18 0 25 -3 6 -5 1 -5 -13z"/>
<path d="M495 930 c3 -5 16 -10 28 -10 18 0 19 2 7 10 -20 13 -43 13 -35 0z"/>
<path d="M560 928 c0 -11 12 -10 30 2 12 7 10 9 -8 7 -12 0 -22 -5 -22 -9z"/>
<path d="M5 920 c-4 -6 -4 -14 -1 -17 7 -7 153 -6 165 2 5 3 11 1 13 -4 2 -5
21 -6 43 -1 l40 7 -55 9 c-30 4 -58 7 -61 7 -18 -5 -87 -3 -110 2 -16 4 -30 2
-34 -5z"/>
<path d="M561 911 c-33 -6 -34 -7 -17 -23 17 -17 15 -18 -34 -18 -55 0 -66 18
-19 31 20 6 19 7 -11 7 -19 0 -44 -3 -55 -8 -18 -8 -18 -9 5 -10 25 -2 25 -2
-5 -16 -16 -7 -39 -12 -50 -9 -11 2 -27 0 -35 -5 -12 -8 -12 -10 -1 -10 8 0
11 -6 7 -16 -4 -11 -1 -14 12 -10 9 3 36 7 60 8 29 2 41 7 37 16 -6 17 16 15
43 -4 12 -8 26 -13 31 -9 5 3 12 1 16 -5 4 -6 11 -7 17 -4 6 4 6 0 -1 -13 -6
-11 -8 -22 -6 -24 12 -12 -131 3 -232 25 -13 3 -23 1 -23 -5 0 -5 -12 -7 -27
-4 -21 4 -23 3 -9 -3 11 -5 15 -11 10 -14 -15 -9 -124 -6 -124 3 0 5 5 9 10 9
6 0 10 4 10 9 0 4 -12 7 -27 5 -16 -2 -22 -1 -15 2 6 3 12 10 12 15 0 6 -9 5
-21 -1 -20 -11 -20 -12 -2 -25 15 -12 15 -14 2 -15 -9 0 -19 3 -22 7 -4 3 -19
7 -34 8 -16 1 -36 5 -47 10 -26 12 -17 -26 10 -40 11 -6 19 -15 17 -21 -2 -6
16 -11 44 -13 51 -2 63 -7 63 -23 0 -6 -9 -8 -20 -5 -23 6 -26 -5 -6 -22 22
-18 110 -31 118 -18 6 9 10 9 16 0 8 -13 102 -20 120 -9 22 13 137 7 187 -10
49 -16 96 -21 165 -15 19 2 60 0 90 -4 51 -7 54 -6 35 8 -19 16 -19 16 10 18
17 1 34 1 39 0 5 -1 21 1 37 4 23 5 29 13 34 48 4 23 12 45 17 48 17 11 18 59
2 59 -8 0 -14 5 -14 11 0 8 -15 10 -44 7 -34 -4 -46 -2 -51 10 -3 8 -8 13 -10
10 -12 -12 9 -38 30 -38 13 0 25 -7 29 -15 6 -17 -9 -21 -19 -5 -3 6 -20 10
-36 10 -20 0 -28 -4 -23 -12 10 -16 -68 -2 -81 15 -5 8 -23 17 -39 21 -27 7
-27 8 -10 21 16 12 19 12 22 -1 2 -8 11 -14 20 -14 13 0 14 2 4 9 -11 7 -10
10 3 15 27 10 45 7 45 -8 0 -19 26 -39 42 -33 8 4 5 8 -9 12 -27 9 -29 22 -6
47 9 10 11 18 5 18 -6 0 -14 -5 -18 -11 -4 -7 -24 -9 -55 -6 -31 4 -49 2 -51
-5 -2 -6 -9 -8 -16 -4 -23 14 -2 32 36 29 27 -2 32 -1 17 5 -30 13 -125 15
-125 2 0 -5 10 -10 23 -11 l22 -1 -22 -6 c-17 -5 -20 -11 -13 -22 15 -23 12
-30 -14 -30 -28 0 -43 16 -24 23 8 3 6 6 -4 6 -10 1 -18 6 -18 11 0 12 6 13
29 1 13 -7 18 -6 18 5 0 8 -10 14 -26 14 -21 0 -23 2 -11 10 16 10 13 11 -39
1z m139 -111 c0 -5 -4 -10 -10 -10 -5 0 -10 5 -10 10 0 6 5 10 10 10 6 0 10
-4 10 -10z m-590 -30 c12 -8 9 -10 -13 -10 -16 0 -26 4 -22 10 8 12 16 12 35
0z m570 0 c0 -5 -4 -10 -10 -10 -5 0 -10 5 -10 10 0 6 5 10 10 10 6 0 10 -4
10 -10z m-455 -10 c-3 -5 -14 -10 -23 -10 -15 0 -15 2 -2 10 20 13 33 13 25 0z"/>
<path d="M805 900 c-3 -5 -1 -10 4 -10 6 0 11 5 11 10 0 6 -2 10 -4 10 -3 0
-8 -4 -11 -10z"/>
<path d="M75 870 c3 -6 20 -10 37 -10 38 0 34 5 -10 13 -21 4 -31 3 -27 -3z"/>
<path d="M998 853 c7 -3 16 -2 19 1 4 3 -2 6 -13 5 -11 0 -14 -3 -6 -6z"/>
<path d="M238 843 c7 -3 16 -2 19 1 4 3 -2 6 -13 5 -11 0 -14 -3 -6 -6z"/>
<path d="M1830 846 c0 -2 8 -10 18 -17 15 -13 16 -12 3 4 -13 16 -21 21 -21
13z"/>
<path d="M200 810 c0 -5 10 -10 23 -10 18 0 19 2 7 10 -19 13 -30 13 -30 0z"/>
<path d="M1538 793 c-16 -38 -16 -48 2 -48 15 0 27 24 29 58 2 27 -18 20 -31
-10z"/>
<path d="M528 803 c7 -3 16 -2 19 1 4 3 -2 6 -13 5 -11 0 -14 -3 -6 -6z"/>
<path d="M1570 736 c-19 -5 -39 -15 -45 -22 -5 -6 -18 -16 -27 -20 -9 -5 -14
-14 -10 -20 5 -7 27 -6 72 5 55 14 65 19 62 36 -5 30 -13 33 -52 21z"/>
<path d="M1080 672 c1 -4 14 -23 30 -42 27 -31 30 -32 30 -12 0 12 -4 22 -10
22 -5 0 -10 8 -10 18 0 11 -8 18 -20 19 -11 1 -20 -1 -20 -5z"/>
<path d="M1510 634 c15 -17 30 -18 30 -1 0 7 -9 13 -21 14 -17 2 -18 -1 -9
-13z"/>
<path d="M1019 596 c-2 -2 -4 -49 -4 -103 1 -87 4 -104 29 -153 40 -80 45 -80
30 3 -7 42 -14 103 -16 137 -1 34 -6 64 -9 66 -4 2 -4 15 -1 29 3 17 0 25 -10
25 -8 0 -17 -2 -19 -4z"/>
<path d="M1106 481 c-3 -4 3 -16 14 -26 19 -18 20 -17 20 8 0 26 -22 38 -34
18z"/>
<path d="M1172 420 c0 -19 2 -27 5 -17 2 9 2 25 0 35 -3 9 -5 1 -5 -18z"/>
<path d="M1211 403 c1 -43 2 -45 9 -18 11 44 11 65 0 65 -5 0 -9 -21 -9 -47z"/>
<path d="M1100 330 c0 -5 7 -10 15 -10 8 0 15 5 15 10 0 6 -7 10 -15 10 -8 0
-15 -4 -15 -10z"/>
<path d="M750 260 c0 -5 5 -10 10 -10 6 0 10 5 10 10 0 6 -4 10 -10 10 -5 0
-10 -4 -10 -10z"/>
<path d="M1117 252 c-15 -7 -14 -11 13 -42 l30 -35 -2 39 c-3 41 -11 49 -41
38z"/>
<path d="M1309 213 c-2 -18 -4 -24 -17 -56 -18 -42 -16 -98 3 -91 8 4 15 1 15
-5 0 -6 -8 -11 -17 -11 -15 0 -16 -2 -3 -10 13 -9 13 -10 0 -10 -12 0 -13 -2
-1 -9 11 -7 11 -9 0 -14 -8 -3 50 -6 129 -6 l143 -1 -18 25 c-10 13 -23 25
-28 25 -13 0 -45 36 -45 50 0 5 -7 7 -15 4 -8 -4 -15 -1 -15 5 0 6 -7 11 -15
11 -8 0 -17 11 -21 24 -4 16 -11 23 -20 19 -8 -3 -17 2 -20 11 -3 9 -11 16
-16 16 -6 0 -17 8 -24 18 -9 11 -14 13 -15 5z"/>
<path d="M1080 189 c0 -10 5 -19 11 -19 7 0 9 -12 5 -34 -4 -21 -2 -37 4 -41
7 -4 3 -14 -11 -26 -18 -15 -19 -20 -7 -24 8 -3 21 -5 29 -3 9 2 13 -5 12 -19
-3 -21 2 -23 38 -23 42 0 42 0 35 33 -21 109 -25 120 -52 143 -40 32 -64 37
-64 13z"/>
<path d="M751 124 c0 -11 3 -14 6 -6 3 7 2 16 -1 19 -3 4 -6 -2 -5 -13z"/>
<path d="M436 33 c-6 -14 -5 -15 5 -6 7 7 10 15 7 18 -3 3 -9 -2 -12 -12z"/>
</g>
</svg>
